<svg width="124" height="80" viewBox="0 0 124 80" fill="none" xmlns="http://www.w3.org/2000/svg">
<g filter="url(#filter0_bd_53_643)">
<rect x="10.5" y="7.5" width="103" height="59" rx="11.5" fill="url(#paint0_linear_53_643)"/>
<rect x="10.5" y="7.5" width="103" height="59" rx="11.5" stroke="url(#paint1_linear_53_643)"/>
<rect x="10.5" y="7.5" width="103" height="59" rx="11.5" stroke="url(#paint2_linear_53_643)" stroke-opacity="0.2"/>
</g>
<path d="M59.8297 28.082V45.7578H57.6422V28.082H59.8297ZM45.7086 35.6016C45.6989 31.793 47.6422 29.3711 50.318 29.3711C52.9645 29.3711 54.9176 31.793 54.9274 35.6016C54.9176 39.4395 52.9645 41.8516 50.318 41.8516C47.6422 41.8516 45.6989 39.4395 45.7086 35.6016ZM47.7985 35.6016C47.7985 38.3164 48.8239 39.8887 50.318 39.8984C51.8024 39.8887 52.818 38.3164 52.818 35.6016C52.818 32.9062 51.8024 31.3242 50.318 31.3242C48.8239 31.3242 47.7985 32.9062 47.7985 35.6016ZM77.2126 28.1016V40.9922H75.0446V34.5273H71.9196V32.7695H75.0446V28.1016H77.2126ZM62.3883 37.1836C65.2008 36.2559 66.7047 33.9512 66.7047 31.5977V31.1289H63.0329V29.3711H72.5641V31.1289H68.9118V31.6172C68.9118 33.7363 70.3376 35.9336 73.0719 36.832L71.9782 38.5703C70.0055 37.8965 68.609 36.5488 67.8376 34.8789C67.0661 36.7344 65.5915 38.2188 63.5016 38.9414L62.3883 37.1836ZM65.6305 45.3867V39.8594H67.7985V43.6289H77.6618V45.3867H65.6305Z" fill="#8A9299"/>
<defs>
<filter id="filter0_bd_53_643" x="-20" y="-23" width="164" height="120" filterUnits="userSpaceOnUse" color-interpolation-filters="sRGB">
<feFlood flood-opacity="0" result="BackgroundImageFix"/>
<feGaussianBlur in="BackgroundImageFix" stdDeviation="15"/>
<feComposite in2="SourceAlpha" operator="in" result="effect1_backgroundBlur_53_643"/>
<feColorMatrix in="SourceAlpha" type="matrix" values="0 0 0 0 0 0 0 0 0 0 0 0 0 0 0 0 0 0 127 0" result="hardAlpha"/>
<feOffset dy="3"/>
<feGaussianBlur stdDeviation="5"/>
<feComposite in2="hardAlpha" operator="out"/>
<feColorMatrix type="matrix" values="0 0 0 0 0 0 0 0 0 0 0 0 0 0 0 0 0 0 0.15 0"/>
<feBlend mode="normal" in2="effect1_backgroundBlur_53_643" result="effect2_dropShadow_53_643"/>
<feBlend mode="normal" in="SourceGraphic" in2="effect2_dropShadow_53_643" result="shape"/>
</filter>
<linearGradient id="paint0_linear_53_643" x1="117.488" y1="84.5" x2="3.97628" y2="76.0035" gradientUnits="userSpaceOnUse">
<stop stop-color="white" stop-opacity="0.8"/>
<stop offset="1" stop-color="white" stop-opacity="0.2"/>
</linearGradient>
<linearGradient id="paint1_linear_53_643" x1="37.1098" y1="60" x2="92.6711" y2="56.7357" gradientUnits="userSpaceOnUse">
<stop stop-color="white" stop-opacity="0.6"/>
<stop offset="1" stop-color="white" stop-opacity="0.2"/>
</linearGradient>
<linearGradient id="paint2_linear_53_643" x1="62" y1="7" x2="62" y2="67" gradientUnits="userSpaceOnUse">
<stop stop-color="white" stop-opacity="0.6"/>
<stop offset="1" stop-color="white" stop-opacity="0"/>
</linearGradient>
</defs>
</svg>
