<svg width="360" height="800" viewBox="0 0 360 800" fill="none" xmlns="http://www.w3.org/2000/svg">
<rect width="360" height="800" fill="url(#paint0_radial_869_2938)"/>
<path d="M130.959 346.082V356.023H128.811V346.082H130.959ZM117.326 355.008V347.117H119.514V353.172C122.277 353.152 124.65 352.947 127.15 352.41L127.424 354.207C124.611 354.783 121.955 354.988 118.83 355.008H117.326ZM119.299 363.504V356.785H130.959V363.504H119.299ZM121.428 361.785H128.85V358.484H121.428V361.785ZM139.299 347.312C142.102 347.303 144.143 349.07 144.162 351.57C144.143 354.08 142.102 355.838 139.299 355.848C136.525 355.838 134.445 354.08 134.455 351.57C134.445 349.07 136.525 347.303 139.299 347.312ZM133.654 358.289C136.838 358.289 141.242 358.25 145.061 357.703L145.236 359.285C141.281 360.037 137.043 360.066 133.928 360.066L133.654 358.289ZM136.604 351.57C136.594 353.045 137.756 353.953 139.299 353.953C140.861 353.953 142.023 353.045 142.033 351.57C142.023 350.105 140.871 349.188 139.299 349.188C137.756 349.188 136.594 350.105 136.604 351.57ZM146.115 363.758V346.082H148.283V363.758H146.115ZM170.295 346.082V363.758H168.107V346.082H170.295ZM156.174 353.602C156.164 349.793 158.107 347.371 160.783 347.371C163.43 347.371 165.383 349.793 165.393 353.602C165.383 357.439 163.43 359.852 160.783 359.852C158.107 359.852 156.164 357.439 156.174 353.602ZM158.264 353.602C158.264 356.316 159.289 357.889 160.783 357.898C162.268 357.889 163.283 356.316 163.283 353.602C163.283 350.906 162.268 349.324 160.783 349.324C159.289 349.324 158.264 350.906 158.264 353.602ZM177.639 347.371C180.295 347.371 182.209 349.793 182.229 353.602C182.209 357.439 180.295 359.852 177.639 359.852C174.953 359.852 173.039 357.439 173.049 353.602C173.039 349.793 174.953 347.371 177.639 347.371ZM175.139 353.602C175.129 356.316 176.154 357.889 177.639 357.898C179.133 357.889 180.129 356.316 180.139 353.602C180.129 350.906 179.133 349.324 177.639 349.324C176.154 349.324 175.129 350.906 175.139 353.602ZM184.553 363.738V346.082H186.721V350.301H189.338V352.117H186.721V355.516H189.338V357.293H186.721V363.738H184.553ZM204.924 346.082V363.738H202.736V346.082H204.924ZM190.295 358.875C194.924 356.678 197.053 353.689 197.443 349.676H191.193V347.957H199.65C199.65 353.211 197.609 357.674 191.428 360.613L190.295 358.875ZM223.576 354.09V355.73H207.443V354.09H223.576ZM209.318 358.309V356.785H221.623V360.809H211.506V362.039H222.15V363.543H209.338V359.402H219.475V358.309H209.318ZM209.436 347.977V346.473H221.584V350.457H211.643V351.609H221.896V353.094H209.494V349.051H219.416V347.977H209.436ZM245.607 354.129V355.926H229.494V354.129H245.607ZM231.467 363.504V357.391H243.693V359.148H233.615V361.746H243.83V363.504H231.467ZM231.525 352.684V346.57H243.596V348.348H233.674V350.926H243.791V352.684H231.525ZM261.193 347.703V349.402C261.174 351.6 261.174 354.051 260.49 357.742L258.303 357.508C258.996 354.07 258.996 351.561 259.006 349.441H248.459V347.703H261.193ZM246.779 361.453V359.676H252.717V353.543H254.865V359.676H262.873V361.453H246.779ZM267.502 360.613L265.861 366.082H264.006L265.021 360.613H267.502ZM74.8457 377.762V379.52H72.502V387.488C73.293 387.459 74.0254 387.381 74.8457 387.195L75.0801 388.992C73.752 389.275 72.6387 389.295 71.1934 389.285H70.3535V377.762H74.8457ZM75.7441 389.285V377.762H80.5684V379.52H77.9121V387.498C79.1621 387.479 80.1094 387.4 81.1738 387.156L81.3496 388.914C79.9043 389.266 78.7031 389.295 76.7012 389.285H75.7441ZM79.7871 384.109V382.352H82.7363V376.082H84.9043V393.738H82.7363V384.109H79.7871ZM95.2168 377.078C99.0059 377.088 101.809 378.973 101.799 381.844C101.809 384.49 99.5332 386.258 96.291 386.58V389.812H103.322V391.59H87.1895V389.812H94.1426V386.58C90.9395 386.258 88.6641 384.49 88.6738 381.844C88.6641 378.973 91.457 377.088 95.2168 377.078ZM90.8027 381.844C90.793 383.748 92.6387 384.891 95.2168 384.891C97.834 384.891 99.6699 383.748 99.6699 381.844C99.6699 379.998 97.834 378.826 95.2168 378.836C92.6387 378.826 90.793 379.998 90.8027 381.844ZM120.588 385.711V387.449H104.455V385.711H120.588ZM106.447 378.25V376.551H118.596V381.258H108.654V382.762H118.947V384.402H106.506V379.695H116.428V378.25H106.447ZM106.525 393.387V388.562H108.713V391.629H118.986V393.387H106.525ZM141.193 376.082V393.758H139.006V376.082H141.193ZM127.072 383.602C127.062 379.793 129.006 377.371 131.682 377.371C134.328 377.371 136.281 379.793 136.291 383.602C136.281 387.439 134.328 389.852 131.682 389.852C129.006 389.852 127.062 387.439 127.072 383.602ZM129.162 383.602C129.162 386.316 130.188 387.889 131.682 387.898C133.166 387.889 134.182 386.316 134.182 383.602C134.182 380.906 133.166 379.324 131.682 379.324C130.188 379.324 129.162 380.906 129.162 383.602ZM153.127 377.742V389.441H144.729V377.742H153.127ZM146.877 387.703H151.018V379.441H146.877V387.703ZM156.291 393.758V376.082H158.479V393.758H156.291ZM167.736 381.102C167.736 383.992 169.436 387.039 172.287 388.23L171.096 389.949C169.006 389.041 167.482 387.195 166.672 384.949C165.861 387.371 164.309 389.402 162.248 390.379L160.998 388.68C163.781 387.391 165.52 384.1 165.529 381.102V379.617H161.643V377.82H171.604V379.617H167.736V381.102ZM173.576 393.738V376.082H175.764V393.738H173.576ZM194.475 384.09V385.73H178.342V384.09H194.475ZM180.217 388.309V386.785H192.521V390.809H182.404V392.039H193.049V393.543H180.236V389.402H190.373V388.309H180.217ZM180.334 377.977V376.473H192.482V380.457H182.541V381.609H192.795V383.094H180.393V379.051H190.314V377.977H180.334ZM210.588 377.41V379.012H206.965C207.111 380.096 208.615 380.984 210.979 381.258L210.256 382.84C208.166 382.557 206.662 381.766 205.9 380.672C205.139 381.824 203.605 382.674 201.467 382.996L200.744 381.434C203.156 381.131 204.65 380.145 204.797 379.012H201.193V377.41H204.807V376.043H206.955V377.41H210.588ZM200.354 383.934C201.691 383.934 203.215 383.924 204.807 383.885V382.273H206.955V383.816C208.42 383.738 209.875 383.631 211.232 383.465L211.389 384.949C207.727 385.535 203.674 385.574 200.588 385.574L200.354 383.934ZM202.58 388.172V386.59H214.377V390.77H204.787V391.961H215.002V393.582H202.619V389.285H212.209V388.172H202.58ZM212.209 385.906V376.082H214.377V380.008H216.76V381.785H214.377V385.906H212.209ZM222.58 377.078C224.006 377.068 225.246 377.596 226.076 378.484H230.295V376.082H232.463V386.473H230.295V384.227H226.066C225.227 385.096 223.996 385.623 222.58 385.613C219.914 385.623 217.912 383.836 217.912 381.355C217.912 378.855 219.914 377.068 222.58 377.078ZM219.982 381.355C219.982 382.801 221.066 383.777 222.58 383.777C224.045 383.777 225.129 382.801 225.139 381.355C225.129 379.861 224.045 378.934 222.58 378.934C221.066 378.934 219.982 379.861 219.982 381.355ZM220.49 390.281C220.471 388.104 222.785 386.834 226.486 386.844C230.197 386.834 232.512 388.104 232.521 390.281C232.512 392.449 230.197 393.719 226.486 393.719C222.785 393.719 220.471 392.449 220.49 390.281ZM222.619 390.281C222.6 391.404 224.035 392.01 226.486 392.02C228.986 392.01 230.393 391.404 230.393 390.281C230.393 389.129 228.986 388.514 226.486 388.504C224.035 388.514 222.6 389.129 222.619 390.281ZM227.053 380.223C227.15 380.584 227.209 380.955 227.209 381.355C227.209 381.746 227.15 382.117 227.062 382.469H230.295V380.223H227.053ZM250.061 376.102V386.98H247.99V382.508H246.311V386.766H244.279V376.355H246.311V380.73H247.99V376.102H250.061ZM234.865 379.617V377.898H238.205V376.18H240.354V377.898H243.654V379.617H234.865ZM235.49 383.348C235.471 381.502 237.072 380.291 239.279 380.281C241.525 380.291 243.107 381.502 243.127 383.348C243.107 385.164 241.525 386.404 239.279 386.414C237.072 386.404 235.471 385.164 235.49 383.348ZM235.998 391.883C238.254 391.199 239.406 389.539 239.396 387.957V387.527H241.545V387.957C241.535 389.334 242.189 390.74 243.674 391.619C245.178 390.682 245.871 389.188 245.881 387.957V387.527H248.029V387.957C248.029 389.637 249.133 391.258 251.447 391.883L250.432 393.523C248.703 392.977 247.541 391.883 246.936 390.535C246.369 391.873 245.334 393.074 243.713 393.68C242.053 393.094 241.008 391.961 240.451 390.623C239.807 391.912 238.654 392.967 237.014 393.523L235.998 391.883ZM237.424 383.348C237.424 384.275 238.176 384.832 239.279 384.832C240.393 384.832 241.154 384.275 241.154 383.348C241.154 382.4 240.393 381.863 239.279 381.863C238.176 381.863 237.424 382.4 237.424 383.348ZM257.072 377.371C259.455 377.371 261.223 379.363 261.535 382.586H264.904V376.082H267.053V393.758H264.904V384.344H261.555C261.32 387.752 259.523 389.852 257.072 389.852C254.416 389.852 252.531 387.439 252.541 383.602C252.531 379.793 254.416 377.371 257.072 377.371ZM254.631 383.602C254.621 386.316 255.617 387.889 257.072 387.898C258.537 387.889 259.523 386.316 259.533 383.602C259.523 380.906 258.537 379.324 257.072 379.324C255.617 379.324 254.621 380.906 254.631 383.602ZM285.666 389.812V391.59H269.533V389.812H273.264V385.35C271.857 384.539 271.008 383.27 271.018 381.707C271.008 378.895 273.762 377.039 277.561 377.039C281.379 377.039 284.152 378.895 284.143 381.707C284.152 383.25 283.322 384.49 281.955 385.301V389.812H285.666ZM273.146 381.707C273.137 383.514 274.924 384.666 277.561 384.656C280.188 384.666 282.014 383.514 282.014 381.707C282.014 379.871 280.188 378.748 277.561 378.758C274.924 378.748 273.137 379.871 273.146 381.707ZM275.412 389.812H279.748V386.131C279.074 386.277 278.342 386.355 277.561 386.355C276.799 386.355 276.076 386.277 275.412 386.141V389.812ZM288.967 392.156C288.127 392.156 287.434 391.473 287.443 390.633C287.434 389.812 288.127 389.139 288.967 389.129C289.777 389.139 290.471 389.812 290.471 390.633C290.471 391.473 289.777 392.156 288.967 392.156Z" fill="#171819"/>
<defs>
<radialGradient id="paint0_radial_869_2938" cx="0" cy="0" r="1" gradientUnits="userSpaceOnUse" gradientTransform="translate(180 400) rotate(90) scale(400 180)">
<stop stop-color="#FAF7C8"/>
<stop offset="1" stop-color="#E9F7FF"/>
</radialGradient>
</defs>
</svg>
