<svg width="262" height="50" viewBox="0 0 262 50" fill="none" xmlns="http://www.w3.org/2000/svg">
<path d="M7.45828 27.7916C7.56606 29.5982 6.87626 31.1442 6.29423 31.661L5.39318 31.4551C5.39318 31.1442 5.39318 30.8376 5.34144 30.3712C5.07846 27.9975 4.22914 18.1369 3.96615 16.4354C3.70316 14.7339 2.85384 14.1121 1 13.2886L1.47855 12.5156C3.70316 12.566 6.13903 13.3432 6.56153 15.5069C6.88057 17.2084 7.35481 25.4682 7.46259 27.7916H7.45828ZM23.3453 16.2295C23.1858 17.8806 21.7027 25.7791 20.8577 28.3588H21.4914C23.0823 28.4092 23.6643 30.4762 22.496 30.4762L8.45849 30.6317L8.13946 29.804C8.13946 29.3377 8.93273 28.8251 9.83378 28.7705L19.2065 28.4092C19.5255 25.7792 20.1593 17.9815 20.267 16.7967C20.3748 15.7128 19.7885 15.301 18.4132 15.196C16.0291 15.0405 10.2046 15.301 7.76869 15.5069L7.55744 14.1667C9.62253 13.6499 16.0334 12.7214 18.784 12.7214C20.1593 12.7214 23.4445 15.1456 23.3367 16.2295H23.3453ZM44.7938 22.061C44.7938 22.7332 44.104 23.5062 43.5738 23.7625C42.2502 23.2962 38.1717 23.5566 35.3651 23.7121L35.2573 41.0006C35.2573 43.9415 34.408 47.5042 33.9338 48.9999H32.8215V8.59151C32.8215 7.40253 32.6619 6.42362 32.3989 5.85644C31.8169 4.66747 29.8553 2.81048 27.9497 1.83157L28.5317 1.00391C31.2866 1.3148 35.5246 3.63814 35.5246 5.75141C35.5246 6.94039 35.4168 8.07474 35.4168 9.67545L35.3651 22.166C37.801 22.061 39.7065 21.3383 41.1379 21.0821C42.6727 20.7712 44.7938 21.5484 44.7938 22.061Z" fill="#171819" stroke="#171819" stroke-width="1.2"/>
<path d="M94.4769 26.6588C94.4251 27.4319 93.5241 28.0537 92.041 27.8982C91.2995 27.5369 89.2344 27.226 87.3805 27.1252C85.5267 27.0201 79.8056 27.0748 73.4508 27.331C67.096 27.5873 56.8223 28.415 54.4899 28.6209C52.1057 28.8267 49.4069 27.1756 48.4541 25.7808L49.2474 25.1632C50.5192 25.8354 52.3213 26.3521 54.0674 26.4025C55.2314 26.453 67.0443 25.8858 71.8082 25.6799L86.902 25.0077C89.0188 24.9573 91.0322 24.9027 92.5152 25.2136C93.8388 25.4699 94.5286 26.0412 94.4769 26.6588ZM65.6647 44.5187C65.7725 46.6866 64.7119 48.5982 64.0738 48.5982C63.5953 48.5982 63.5435 48.1864 63.4918 47.3084C63.3323 44.7287 62.5907 38.0192 62.2717 36.3681C62.0087 34.8724 61.1594 34.2506 59.8876 33.8893L60.3101 33.1667C62.1639 32.9104 64.5481 33.633 64.811 35.4396C65.074 37.0907 65.5526 42.1996 65.6604 44.5229L65.6647 44.5187ZM61.5862 13.912C61.5862 9.47539 65.3974 6.3244 69.5319 5.34549C70.752 4.93376 70.4847 4.21113 69.3724 3.4885L69.9544 2.66504C71.597 3.1818 72.7093 4.21533 72.7093 5.08921C72.7093 6.0177 71.7565 6.74033 70.1656 7.15206C66.6175 8.08055 64.2851 10.8156 64.2851 13.912C64.2851 17.4201 66.8287 20.1594 71.4332 20.1594C76.0376 20.1594 78.5812 17.4243 78.5812 13.912C78.5812 11.1769 77.0464 8.49228 73.1792 7.09744L74.0803 6.11853C78.5295 7.25289 81.2844 10.093 81.2844 13.912C81.2844 18.7645 77.1542 21.8609 71.4332 21.8609C65.7121 21.8609 61.5819 18.6595 61.5819 13.912H61.5862ZM82.5045 47.1529L66.6175 47.3588L66.2984 46.5311C66.4062 46.0144 67.4625 45.4976 68.523 45.4976C69.2646 45.4976 76.4687 45.2413 79.1158 45.2413C79.3788 43.2793 79.9651 37.8596 80.0169 36.6748C80.0686 35.5909 79.4866 35.1245 78.1113 35.0237C75.7272 34.8682 68.3118 35.28 65.9277 35.4354L65.7164 34.0952C67.7815 33.6288 75.7272 32.5995 78.4821 32.5995C79.9134 32.5995 83.0908 34.9733 82.983 36.0572C82.8235 37.6579 81.5517 42.7667 80.7067 44.8842C81.1292 44.7792 81.6077 44.6783 82.2415 44.8338C83.6728 45.1951 83.7763 47.1571 82.5045 47.1571V47.1529Z" fill="#171819" stroke="#171819" stroke-width="1.2"/>
<path d="M134.469 15.3514C131.502 21.7501 124.829 29.5982 117.944 34.9128L117.042 33.8793C123.397 28.1487 128.959 20.8216 130.972 15.4523C131.502 14.0574 131.502 13.4903 130.813 12.7172C130.179 11.9946 129.118 11.4274 128.269 10.9611L128.903 10.188C130.864 10.4443 133.192 11.3224 134.413 12.4063C135.525 13.4398 134.943 14.3179 134.464 15.3472L134.469 15.3514ZM141.936 31.2493C141.936 32.85 140.241 33.3668 139.34 32.9508C139.181 30.7829 133.779 25.5691 131.235 23.5566L132.296 22.3677C134.783 24.3297 136.585 25.5145 138.28 26.8085C140.082 28.1487 141.936 29.594 141.936 31.2451V31.2493ZM161.427 22.061C161.427 22.7332 160.737 23.5062 160.207 23.7625C158.883 23.2962 154.805 23.5566 151.998 23.7121L151.89 41.0006C151.89 43.9415 151.041 47.5042 150.567 48.9999H149.455V8.59151C149.455 7.40253 149.295 6.42362 149.032 5.85644C148.45 4.66747 146.488 2.81048 144.583 1.83157L145.165 1.00391C147.92 1.3148 152.158 3.63814 152.158 5.75141C152.158 6.94039 152.05 8.07474 152.05 9.67545L151.998 22.166C154.434 22.061 156.34 21.3383 157.771 21.0821C159.306 20.7712 161.427 21.5484 161.427 22.061Z" fill="#171819" stroke="#171819" stroke-width="1.2"/>
<path d="M171.175 9.00353C172.235 9.67575 173.822 9.77658 174.671 9.77658C177.585 9.77658 183.147 8.8985 185.527 8.8985C186.85 8.8985 189.657 11.016 189.657 12.0453C189.657 12.7175 189.286 13.2343 188.812 13.9527C185.423 19.1161 175.835 26.5987 169.002 30.0564L168.101 29.0229C174.615 25.1534 182.931 17.7213 185.949 12.9192C186.85 11.4739 186.531 11.0622 185.259 11.0622C183.035 11.0622 176.042 12.0957 174.033 12.0411C172.076 11.9907 170.855 10.6463 170.325 9.82279L171.17 8.99933L171.175 9.00353ZM179.862 33.7242C182.617 33.5183 186.906 33.4133 186.906 35.787C186.906 36.7155 186.799 37.2827 186.799 38.0599L186.747 42.757C186.747 44.3073 187.01 45.0299 188.338 45.0299L196.439 44.8745C198.133 44.8241 200.409 44.5132 201.207 44.3073C203.643 43.6897 205.285 44.051 206.186 44.8241C206.928 45.4417 206.398 46.6306 205.867 46.6306L187.911 46.8365C185.264 46.8365 184.203 45.2862 184.203 43.7401L184.255 36.5138C184.255 35.5349 182.509 35.0686 179.646 34.6569L179.857 33.7284L179.862 33.7242ZM189.553 23.0906C190.877 23.9183 192.308 24.8467 192.308 26.2374C192.308 27.628 190.933 28.2498 190.032 27.8885C189.661 25.771 185.691 22.4184 183.837 21.3849L185.109 20.4564C186.855 21.4353 188.234 22.2629 189.558 23.0864L189.553 23.0906ZM201.418 8.5876C201.418 7.39863 201.366 6.41972 201.047 5.85254C200.414 4.66356 198.4 2.80657 196.546 1.82766L197.077 1C199.883 1.3109 204.121 3.63423 204.121 5.7475C204.121 6.93648 203.962 8.07084 203.962 9.67154L203.91 29.9052C203.91 32.7453 202.957 36.3584 202.479 37.3877H201.418V8.5918V8.5876Z" fill="#171819" stroke="#171819" stroke-width="1.2"/>
<path d="M245.906 25.8299C239.603 27.5314 225.199 30.2707 221.755 30.2707C219.638 30.2707 216.883 29.0313 215.982 28.1028L216.775 27.2793C217.78 27.6406 220.22 27.9515 221.543 27.9515C222.975 27.9515 225.251 27.7457 227.847 27.4852V21.2378C227.847 20.4143 227.847 20.0488 227.316 19.6371C226.786 19.2254 225.885 18.9649 225.092 18.759L225.411 18.0364C226.312 17.9314 228.325 18.0364 229.33 18.4481C229.808 18.654 230.282 18.9649 230.282 19.3766C230.282 19.7883 230.175 20.2547 230.175 20.6664L230.067 23.8132C230.015 24.9476 229.696 26.292 229.377 27.2709C234.99 26.5987 241.772 25.5694 245.635 24.7417L245.898 25.8257L245.906 25.8299ZM220.06 9.10857L220.75 8.38594C221.703 8.95312 223.134 9.05815 224.669 9.05815C227.424 9.05815 233.619 8.74725 237.008 8.38594C238.439 8.23049 241.509 10.2975 241.509 11.4319C241.509 14.94 239.918 19.5363 238.013 23.0444L236.848 22.4772C237.961 18.759 238.439 15.3559 238.439 12.0495C238.439 10.9656 238.176 10.5538 236.848 10.6547C233.671 10.9109 227.049 11.3269 224.561 11.3269C222.337 11.3269 220.694 10.3984 220.06 9.10857ZM254.486 46.6306L234.943 46.8365C232.348 46.8365 231.235 45.2862 231.235 43.7401L231.287 37.4423C231.287 36.4634 229.593 36.0475 226.73 35.6358L226.941 34.6569C229.696 34.451 233.934 34.346 233.934 36.7197C233.934 37.6482 233.826 38.2154 233.826 38.9926L233.775 42.7612C233.775 44.3115 234.038 45.0846 235.365 45.0846L245.057 44.9291C246.751 44.8787 249.028 44.5174 249.825 44.3115C252.261 43.6939 253.904 44.0552 254.805 44.8283C255.546 45.4459 255.016 46.6348 254.486 46.6348V46.6306ZM261 20.9773C261 21.6495 260.31 22.4226 259.78 22.6789C258.457 22.2125 254.43 22.473 251.571 22.6284V29.9556C251.571 32.7957 250.619 36.4088 250.14 37.4381H249.08V8.33132C249.08 7.14234 249.028 6.16343 248.709 5.59626C248.075 4.40728 246.062 2.81077 244.208 1.82766L244.738 1C247.545 1.3109 251.783 3.47878 251.783 5.49122C251.783 6.6802 251.623 7.81456 251.623 9.41526L251.571 21.0782C254.007 20.9227 255.913 20.2505 257.344 19.9942C258.879 19.6833 261 20.4606 261 20.9731V20.9773Z" fill="#171819" stroke="#171819" stroke-width="1.2"/>
</svg>
