<svg width="348" height="80" viewBox="0 0 348 80" fill="none" xmlns="http://www.w3.org/2000/svg">
<g filter="url(#filter0_bd_58_2662)">
<rect x="10.5" y="7.5" width="327" height="59" rx="11.5" fill="url(#paint0_linear_58_2662)"/>
<rect x="10.5" y="7.5" width="327" height="59" rx="11.5" stroke="url(#paint1_linear_58_2662)"/>
<rect x="10.5" y="7.5" width="327" height="59" rx="11.5" stroke="url(#paint2_linear_58_2662)" stroke-opacity="0.2"/>
</g>
<path d="M126.166 32.3203C126.146 35.4746 127.729 38.6582 130.463 39.9766L129.135 41.7148C127.221 40.748 125.844 38.8828 125.092 36.6367C124.32 39.0391 122.875 41.0312 120.854 42.0469L119.525 40.3086C122.367 38.9609 123.988 35.582 123.998 32.3203V29.5078H126.166V32.3203ZM131.518 45.7383V28.082H133.686V34.9961H136.4V36.8516H133.686V45.7383H131.518ZM143.842 31.6758C143.842 33.873 145.346 36.0215 148.158 36.8906L147.045 38.5898C145.043 37.9453 143.588 36.6172 142.777 34.9375C141.986 36.7637 140.482 38.2188 138.393 38.9414L137.279 37.2227C140.121 36.2852 141.635 34 141.654 31.6758V31.168H137.846V29.4297H147.553V31.168H143.842V31.6758ZM140.17 45.3867V39.7422H142.357V43.6289H152.338V45.3867H140.17ZM149.662 40.9141V28.1016H151.85V40.9141H149.662ZM173.881 28.1016V40.8555H171.693V28.1016H173.881ZM159.486 33.668C159.486 31.0996 161.566 29.2637 164.252 29.2539C166.938 29.2637 169.008 31.0996 168.998 33.668C169.008 36.2754 166.938 38.1016 164.252 38.1016C161.566 38.1016 159.486 36.2754 159.486 33.668ZM161.615 33.668C161.605 35.2305 162.738 36.207 164.252 36.207C165.727 36.207 166.869 35.2305 166.869 33.668C166.869 32.1445 165.727 31.1484 164.252 31.1484C162.738 31.1484 161.605 32.1445 161.615 33.668ZM162.201 45.3867V39.5664H164.389V43.6289H174.369V45.3867H162.201ZM190.424 28.082V35.3672H192.904V37.1836H190.424V45.7383H188.236V28.082H190.424ZM176.244 40.8359C177.582 40.8359 179.135 40.8359 180.756 40.7969V39.1465C178.832 38.8145 177.582 37.6133 177.592 35.9531C177.582 33.9609 179.33 32.6426 181.869 32.6328C184.379 32.6426 186.146 33.9609 186.166 35.9531C186.146 37.623 184.867 38.8242 182.943 39.1465V40.7188C184.428 40.6406 185.912 40.5234 187.299 40.3281L187.436 41.9102C183.646 42.6035 179.564 42.6328 176.557 42.6328L176.244 40.8359ZM176.576 31.832V30.1133H180.756V28.1602H182.943V30.1133H187.104V31.832H176.576ZM179.643 35.9531C179.633 36.9688 180.531 37.5645 181.869 37.5547C183.188 37.5645 184.076 36.9688 184.076 35.9531C184.076 34.9277 183.188 34.3027 181.869 34.293C180.531 34.3027 179.633 34.9277 179.643 35.9531ZM207.572 28.082V35.1133H210.287V36.9102H207.572V45.7383H205.424V28.082H207.572ZM193.646 32.5352V30.7969H197.826V28.3359H199.994V30.7969H204.057V32.5352H193.646ZM194.467 37.8477C194.447 35.4062 196.342 33.6777 198.92 33.6875C201.459 33.6777 203.344 35.4062 203.354 37.8477C203.344 40.2793 201.459 41.9883 198.92 41.9883C196.342 41.9883 194.447 40.2793 194.467 37.8477ZM196.537 37.8477C196.527 39.2832 197.533 40.2012 198.92 40.1914C200.277 40.2012 201.264 39.2832 201.283 37.8477C201.264 36.4121 200.277 35.4648 198.92 35.4648C197.533 35.4648 196.527 36.4121 196.537 37.8477ZM225.775 28.082V45.7383H223.588V28.082H225.775ZM211.146 40.875C215.775 38.6777 217.904 35.6895 218.295 31.6758H212.045V29.957H220.502C220.502 35.2109 218.461 39.6738 212.279 42.6133L211.146 40.875Z" fill="#717BD6"/>
<defs>
<filter id="filter0_bd_58_2662" x="-20" y="-23" width="388" height="120" filterUnits="userSpaceOnUse" color-interpolation-filters="sRGB">
<feFlood flood-opacity="0" result="BackgroundImageFix"/>
<feGaussianBlur in="BackgroundImageFix" stdDeviation="15"/>
<feComposite in2="SourceAlpha" operator="in" result="effect1_backgroundBlur_58_2662"/>
<feColorMatrix in="SourceAlpha" type="matrix" values="0 0 0 0 0 0 0 0 0 0 0 0 0 0 0 0 0 0 127 0" result="hardAlpha"/>
<feOffset dy="3"/>
<feGaussianBlur stdDeviation="5"/>
<feComposite in2="hardAlpha" operator="out"/>
<feColorMatrix type="matrix" values="0 0 0 0 0 0 0 0 0 0 0 0 0 0 0 0 0 0 0.15 0"/>
<feBlend mode="normal" in2="effect1_backgroundBlur_58_2662" result="effect2_dropShadow_58_2662"/>
<feBlend mode="normal" in="SourceGraphic" in2="effect2_dropShadow_58_2662" result="shape"/>
</filter>
<linearGradient id="paint0_linear_58_2662" x1="349" y1="84.5" x2="8" y2="4.00003" gradientUnits="userSpaceOnUse">
<stop stop-color="white" stop-opacity="0.4"/>
<stop offset="1" stop-color="white" stop-opacity="0"/>
</linearGradient>
<linearGradient id="paint1_linear_58_2662" x1="95.5" y1="60" x2="265.5" y2="28.5" gradientUnits="userSpaceOnUse">
<stop stop-color="white" stop-opacity="0.6"/>
<stop offset="1" stop-color="white" stop-opacity="0.2"/>
</linearGradient>
<linearGradient id="paint2_linear_58_2662" x1="174" y1="7" x2="174" y2="67" gradientUnits="userSpaceOnUse">
<stop stop-color="white" stop-opacity="0.6"/>
<stop offset="1" stop-color="white" stop-opacity="0"/>
</linearGradient>
</defs>
</svg>
