<svg width="348" height="80" viewBox="0 0 348 80" fill="none" xmlns="http://www.w3.org/2000/svg">
<g filter="url(#filter0_bd_58_2495)">
<rect x="10.5" y="7.5" width="327" height="59" rx="11.5" fill="url(#paint0_linear_58_2495)"/>
<rect x="10.5" y="7.5" width="327" height="59" rx="11.5" stroke="url(#paint1_linear_58_2495)"/>
<rect x="10.5" y="7.5" width="327" height="59" rx="11.5" stroke="url(#paint2_linear_58_2495)" stroke-opacity="0.2"/>
</g>
<path d="M133.684 35.0083H136.405V36.8522H133.684V45.7265H131.509V28.0884H133.684V35.0083ZM126.164 29.5041V32.3287C126.15 35.471 127.731 38.6616 130.459 39.9807L129.14 41.721C127.22 40.7541 125.853 38.8895 125.1 36.645C124.32 39.0414 122.876 41.0373 120.86 42.0525L119.52 40.2983C122.365 38.9586 123.981 35.5815 123.995 32.3287V29.5041H126.164ZM149.664 28.1022H151.84V40.9199H149.664V28.1022ZM142.786 34.9323C141.985 36.7624 140.486 38.2196 138.401 38.9309L137.275 37.2182C140.12 36.2859 141.64 34 141.646 31.6727V31.1685H137.848V29.4213H147.565V31.1685H143.849V31.6727C143.849 33.8688 145.348 36.0235 148.159 36.8798L147.047 38.5856C145.037 37.9434 143.587 36.6105 142.786 34.9323ZM142.351 39.732V43.634H152.337V45.395H140.162V39.732H142.351ZM172.787 35.0843L170.646 34.8702C171.081 33.1575 171.109 31.9213 171.116 30.6367H161.046V28.9171H173.284V30.3812C173.284 31.7831 173.284 33.268 172.787 35.0843ZM167.566 32.8812V36.0787H175.232V37.8398H159.209V36.0787H165.418V32.8812H167.566ZM167.124 39.1243C170.964 39.1312 173.381 40.3398 173.395 42.4323C173.381 44.4903 170.964 45.7196 167.124 45.7127C163.319 45.7196 160.881 44.4903 160.881 42.4323C160.881 40.3398 163.319 39.1312 167.124 39.1243ZM167.124 44.0414C169.686 44.0414 171.226 43.4751 171.233 42.4323C171.226 41.3619 169.686 40.761 167.124 40.7541C164.575 40.761 163.035 41.3619 163.049 42.4323C163.035 43.4751 164.575 44.0414 167.124 44.0414ZM184.464 36.5138C180.707 36.5207 178.124 35.0221 178.131 32.6602C178.124 30.2569 180.707 28.7169 184.464 28.7169C188.228 28.7169 190.825 30.2569 190.825 32.6602C190.825 35.0221 188.228 36.5207 184.464 36.5138ZM184.464 30.4641C181.971 30.4641 180.355 31.2721 180.369 32.6602C180.355 34.0069 181.971 34.7942 184.464 34.7942C186.971 34.7942 188.58 34.0069 188.587 32.6602C188.58 31.2721 186.971 30.4641 184.464 30.4641ZM176.439 37.9779H192.579V39.739H188.642V45.7265H186.446V39.739H182.524V45.7265H180.3V39.739H176.439V37.9779ZM207.571 35.1188H210.292V36.9075H207.571V45.7265H205.423V28.0884H207.571V35.1188ZM197.82 28.337H199.988V30.7887H204.063V32.5428H193.649V30.7887H197.82V28.337ZM198.918 33.6823C201.459 33.6823 203.345 35.4019 203.358 37.8398C203.345 40.2776 201.459 41.9903 198.918 41.9903C196.342 41.9903 194.45 40.2776 194.463 37.8398C194.45 35.4019 196.342 33.6823 198.918 33.6823ZM198.918 40.1948C200.278 40.2086 201.266 39.2901 201.28 37.8398C201.266 36.4102 200.278 35.4641 198.918 35.4641C197.537 35.4641 196.528 36.4102 196.542 37.8398C196.528 39.2901 197.537 40.2086 198.918 40.1948ZM223.579 45.7265V28.0884H225.768V45.7265H223.579ZM212.046 29.9599H220.506C220.499 35.2155 218.461 39.6768 212.287 42.6119L211.148 40.8715C215.768 38.6754 217.909 35.6989 218.296 31.6796H212.046V29.9599Z" fill="#717BD6"/>
<defs>
<filter id="filter0_bd_58_2495" x="-20" y="-23" width="388" height="120" filterUnits="userSpaceOnUse" color-interpolation-filters="sRGB">
<feFlood flood-opacity="0" result="BackgroundImageFix"/>
<feGaussianBlur in="BackgroundImageFix" stdDeviation="15"/>
<feComposite in2="SourceAlpha" operator="in" result="effect1_backgroundBlur_58_2495"/>
<feColorMatrix in="SourceAlpha" type="matrix" values="0 0 0 0 0 0 0 0 0 0 0 0 0 0 0 0 0 0 127 0" result="hardAlpha"/>
<feOffset dy="3"/>
<feGaussianBlur stdDeviation="5"/>
<feComposite in2="hardAlpha" operator="out"/>
<feColorMatrix type="matrix" values="0 0 0 0 0 0 0 0 0 0 0 0 0 0 0 0 0 0 0.15 0"/>
<feBlend mode="normal" in2="effect1_backgroundBlur_58_2495" result="effect2_dropShadow_58_2495"/>
<feBlend mode="normal" in="SourceGraphic" in2="effect2_dropShadow_58_2495" result="shape"/>
</filter>
<linearGradient id="paint0_linear_58_2495" x1="349" y1="84.5" x2="8" y2="4.00003" gradientUnits="userSpaceOnUse">
<stop stop-color="white" stop-opacity="0.4"/>
<stop offset="1" stop-color="white" stop-opacity="0"/>
</linearGradient>
<linearGradient id="paint1_linear_58_2495" x1="95.5" y1="60" x2="265.5" y2="28.5" gradientUnits="userSpaceOnUse">
<stop stop-color="white" stop-opacity="0.6"/>
<stop offset="1" stop-color="white" stop-opacity="0.2"/>
</linearGradient>
<linearGradient id="paint2_linear_58_2495" x1="174" y1="7" x2="174" y2="67" gradientUnits="userSpaceOnUse">
<stop stop-color="white" stop-opacity="0.6"/>
<stop offset="1" stop-color="white" stop-opacity="0"/>
</linearGradient>
</defs>
</svg>
