<svg width="348" height="80" viewBox="0 0 348 80" fill="none" xmlns="http://www.w3.org/2000/svg">
<g filter="url(#filter0_bd_58_2496)">
<rect x="10.5" y="7.5" width="327" height="59" rx="11.5" fill="url(#paint0_linear_58_2496)"/>
<rect x="10.5" y="7.5" width="327" height="59" rx="11.5" stroke="url(#paint1_linear_58_2496)"/>
<rect x="10.5" y="7.5" width="327" height="59" rx="11.5" stroke="url(#paint2_linear_58_2496)" stroke-opacity="0.2"/>
</g>
<path d="M122.67 28.082V34.7812H125.385V36.5586H122.67V45.7578H120.502V28.082H122.67ZM109.564 41.4414V29.7617H117.826V31.5195H111.732V39.625C114.477 39.6152 116.654 39.4785 119.076 39.0586L119.33 40.8945C116.586 41.3633 114.213 41.4414 111.029 41.4414H109.564ZM132.807 32.3203C132.787 35.5625 134.496 38.8047 137.357 40.0352L136.068 41.7734C134.037 40.8359 132.553 38.9707 131.732 36.666C130.922 39.1465 129.398 41.1777 127.26 42.1836L125.932 40.3672C128.871 39.0977 130.59 35.7285 130.6 32.3203V29.5078H132.807V32.3203ZM138.627 45.7578V28.082H140.814V45.7578H138.627ZM163.158 39.4297V45.7383H160.99V41.1484H150.717V39.4297H163.158ZM147.885 36.5391C149.887 35.4551 150.6 33.2676 150.6 31.3828V31.0703H148.549V29.3125H153.744V31.0703H152.611V31.3828C152.611 32.7695 152.943 34.5664 154.145 35.875C155.297 34.5957 155.609 32.8184 155.619 31.3828V31.0703H154.506V29.3125H159.584V31.0703H157.689V31.3828C157.68 33.2871 158.373 35.4844 160.385 36.5391L159.252 38.082C157.934 37.3789 157.123 36.2168 156.664 34.8691C156.234 36.2461 155.463 37.5059 154.135 38.2578C152.826 37.5059 152.055 36.2656 151.615 34.918C151.156 36.2461 150.346 37.3984 149.037 38.082L147.885 36.5391ZM160.99 38.6094V28.082H163.158V38.6094H160.99ZM173.471 29.0781C177.191 29.0781 180.062 31.0605 180.053 34.0586C180.062 37.0957 177.191 39.0781 173.471 39.0781C169.77 39.0781 166.918 37.0957 166.928 34.0586C166.918 31.0605 169.77 29.0781 173.471 29.0781ZM165.443 43.5117V41.7344H181.576V43.5117H165.443ZM169.018 34.0586C169.008 36.0605 170.902 37.291 173.471 37.3008C176.049 37.291 177.924 36.0605 177.924 34.0586C177.924 32.1055 176.049 30.8164 173.471 30.8359C170.902 30.8164 169.008 32.1055 169.018 34.0586ZM197.514 28.082V45.7578H195.346V36.3633H192.318V34.5859H195.346V28.082H197.514ZM183.314 31.3828V29.625H191.303V36.0898H185.521V39.8008C188.148 39.791 190.258 39.7031 192.631 39.2734L192.807 41.0508C190.18 41.5098 187.816 41.6074 184.779 41.6172H183.373V34.332H189.174V31.3828H183.314ZM218.588 28.082V34.9766H221.205V36.793H218.588V45.6992H216.42V28.082H218.588ZM204.662 40.875C208.959 38.7266 211.283 35.7383 211.713 31.7148H205.619V29.918H213.92C213.91 35.1035 211.762 39.6641 205.893 42.5547L204.662 40.875ZM236.791 28.082V45.7383H234.604V28.082H236.791ZM222.162 40.875C226.791 38.6777 228.92 35.6895 229.311 31.6758H223.061V29.957H231.518C231.518 35.2109 229.477 39.6738 223.295 42.6133L222.162 40.875Z" fill="#8A9299"/>
<defs>
<filter id="filter0_bd_58_2496" x="-20" y="-23" width="388" height="120" filterUnits="userSpaceOnUse" color-interpolation-filters="sRGB">
<feFlood flood-opacity="0" result="BackgroundImageFix"/>
<feGaussianBlur in="BackgroundImageFix" stdDeviation="15"/>
<feComposite in2="SourceAlpha" operator="in" result="effect1_backgroundBlur_58_2496"/>
<feColorMatrix in="SourceAlpha" type="matrix" values="0 0 0 0 0 0 0 0 0 0 0 0 0 0 0 0 0 0 127 0" result="hardAlpha"/>
<feOffset dy="3"/>
<feGaussianBlur stdDeviation="5"/>
<feComposite in2="hardAlpha" operator="out"/>
<feColorMatrix type="matrix" values="0 0 0 0 0 0 0 0 0 0 0 0 0 0 0 0 0 0 0.15 0"/>
<feBlend mode="normal" in2="effect1_backgroundBlur_58_2496" result="effect2_dropShadow_58_2496"/>
<feBlend mode="normal" in="SourceGraphic" in2="effect2_dropShadow_58_2496" result="shape"/>
</filter>
<linearGradient id="paint0_linear_58_2496" x1="349" y1="84.5" x2="8" y2="4.00003" gradientUnits="userSpaceOnUse">
<stop stop-color="white" stop-opacity="0.4"/>
<stop offset="1" stop-color="white" stop-opacity="0"/>
</linearGradient>
<linearGradient id="paint1_linear_58_2496" x1="95.5" y1="60" x2="265.5" y2="28.5" gradientUnits="userSpaceOnUse">
<stop stop-color="white" stop-opacity="0.6"/>
<stop offset="1" stop-color="white" stop-opacity="0.2"/>
</linearGradient>
<linearGradient id="paint2_linear_58_2496" x1="174" y1="7" x2="174" y2="67" gradientUnits="userSpaceOnUse">
<stop stop-color="white" stop-opacity="0.6"/>
<stop offset="1" stop-color="white" stop-opacity="0"/>
</linearGradient>
</defs>
</svg>
