<svg width="348" height="80" viewBox="0 0 348 80" fill="none" xmlns="http://www.w3.org/2000/svg">
<g filter="url(#filter0_bd_70_218)">
<rect x="10.5" y="7.5" width="327" height="59" rx="11.5" fill="url(#paint0_linear_70_218)"/>
<rect x="10.5" y="7.5" width="327" height="59" rx="11.5" stroke="url(#paint1_linear_70_218)"/>
<rect x="10.5" y="7.5" width="327" height="59" rx="11.5" stroke="url(#paint2_linear_70_218)" stroke-opacity="0.2"/>
</g>
<path d="M105.384 34.8978H108.001V36.6796H105.384V45.6989H103.208V28.0884H105.384V34.8978ZM94.334 29.7942V39.5387C96.6889 39.511 99.1889 39.297 101.855 38.7514L102.089 40.5746C99.1061 41.1754 96.2884 41.3412 93.6572 41.3343H92.1724V29.7942H94.334ZM117.952 37.8329V41.866H124.982V43.6478H108.843V41.866H115.797V37.8329H110.797V29.3936H123.035V31.134H112.973V36.1064H123.173V37.8329H117.952ZM144.7 35.0083H147.421V36.8522H144.7V45.7265H142.525V28.0884H144.7V35.0083ZM137.179 29.5041V32.3287C137.166 35.471 138.747 38.6616 141.475 39.9807L140.156 41.721C138.236 40.7541 136.869 38.8895 136.116 36.645C135.335 39.0414 133.892 41.0373 131.876 42.0525L130.536 40.2983C133.381 38.9586 134.997 35.5815 135.011 32.3287V29.5041H137.179ZM160.68 28.1022H162.855V40.9199H160.68V28.1022ZM153.802 34.9323C153 36.7624 151.502 38.2196 149.416 38.9309L148.29 37.2182C151.136 36.2859 152.655 34 152.662 31.6727V31.1685H148.864V29.4213H158.581V31.1685H154.865V31.6727C154.865 33.8688 156.364 36.0235 159.174 36.8798L158.063 38.5856C156.053 37.9434 154.603 36.6105 153.802 34.9323ZM153.366 39.732V43.634H163.353V45.395H151.177V39.732H153.366ZM178.276 38.6133V28.0884H180.451V38.6133H178.276ZM171.425 38.261C170.106 37.5083 169.339 36.2652 168.904 34.9116C168.435 36.2445 167.627 37.3978 166.328 38.0815L165.161 36.5345C167.171 35.4503 167.882 33.261 167.889 31.3826V31.0649H165.838V29.3108H171.031V31.0649H169.899V31.3826C169.899 32.7707 170.23 34.5663 171.418 35.8646C172.578 34.5939 172.896 32.8191 172.896 31.3826V31.0649H171.798V29.3108H176.874V31.0649H174.975V31.3826C174.968 33.2818 175.659 35.4779 177.668 36.5345L176.543 38.0815C175.223 37.384 174.409 36.2238 173.946 34.8771C173.518 36.2514 172.751 37.5083 171.425 38.261ZM178.276 41.1478H168.007V39.4351H180.451V45.7265H178.276V41.1478ZM190.761 29.0691C194.477 29.076 197.343 31.058 197.343 34.0691C197.343 37.1008 194.477 39.0829 190.761 39.0691C187.053 39.0829 184.201 37.1008 184.207 34.0691C184.201 31.058 187.053 29.076 190.761 29.0691ZM190.761 30.8301C188.192 30.8232 186.293 32.1008 186.307 34.0691C186.293 36.058 188.192 37.2942 190.761 37.2942C193.33 37.2942 195.209 36.058 195.209 34.0691C195.209 32.1008 193.33 30.8232 190.761 30.8301ZM182.73 41.7417H198.869V43.5097H182.73V41.7417ZM212.632 34.587V28.0884H214.794V45.768H212.632V36.3688H209.593V34.587H212.632ZM202.812 36.0856V39.8011C205.436 39.7873 207.542 39.6975 209.918 39.2762L210.098 41.058C207.466 41.5138 205.105 41.6105 202.066 41.6174H200.657V34.3384H206.458V31.3826H200.602V29.6215H208.585V36.0856H202.812ZM235.872 34.9807H238.489V36.7831H235.872V45.6989H233.697V28.0884H235.872V34.9807ZM222.895 29.9185H231.21C231.197 35.105 229.049 39.663 223.179 42.5497L221.956 40.8785C226.252 38.7238 228.572 35.7265 229 31.7072H222.895V29.9185ZM251.879 45.7265V28.0884H254.069V45.7265H251.879ZM240.346 29.9599H248.806C248.799 35.2155 246.762 39.6768 240.588 42.6119L239.449 40.8715C244.069 38.6754 246.21 35.6989 246.596 31.6796H240.346V29.9599Z" fill="#717BD6"/>
<defs>
<filter id="filter0_bd_70_218" x="-20" y="-23" width="388" height="120" filterUnits="userSpaceOnUse" color-interpolation-filters="sRGB">
<feFlood flood-opacity="0" result="BackgroundImageFix"/>
<feGaussianBlur in="BackgroundImageFix" stdDeviation="15"/>
<feComposite in2="SourceAlpha" operator="in" result="effect1_backgroundBlur_70_218"/>
<feColorMatrix in="SourceAlpha" type="matrix" values="0 0 0 0 0 0 0 0 0 0 0 0 0 0 0 0 0 0 127 0" result="hardAlpha"/>
<feOffset dy="3"/>
<feGaussianBlur stdDeviation="5"/>
<feComposite in2="hardAlpha" operator="out"/>
<feColorMatrix type="matrix" values="0 0 0 0 0 0 0 0 0 0 0 0 0 0 0 0 0 0 0.15 0"/>
<feBlend mode="normal" in2="effect1_backgroundBlur_70_218" result="effect2_dropShadow_70_218"/>
<feBlend mode="normal" in="SourceGraphic" in2="effect2_dropShadow_70_218" result="shape"/>
</filter>
<linearGradient id="paint0_linear_70_218" x1="349" y1="84.5" x2="8" y2="4.00003" gradientUnits="userSpaceOnUse">
<stop stop-color="white" stop-opacity="0.4"/>
<stop offset="1" stop-color="white" stop-opacity="0"/>
</linearGradient>
<linearGradient id="paint1_linear_70_218" x1="95.5" y1="60" x2="265.5" y2="28.5" gradientUnits="userSpaceOnUse">
<stop stop-color="white" stop-opacity="0.6"/>
<stop offset="1" stop-color="white" stop-opacity="0.2"/>
</linearGradient>
<linearGradient id="paint2_linear_70_218" x1="174" y1="7" x2="174" y2="67" gradientUnits="userSpaceOnUse">
<stop stop-color="white" stop-opacity="0.6"/>
<stop offset="1" stop-color="white" stop-opacity="0"/>
</linearGradient>
</defs>
</svg>
